<svg id="Слой_1" data-name="Слой 1" xmlns="http://www.w3.org/2000/svg" xmlns:xlink="http://www.w3.org/1999/xlink" viewBox="0 0 1363.28 719"><defs><style>.cls-1{fill:url(#Безымянный_градиент_4);}.cls-2{fill:url(#Безымянный_градиент_2);}.cls-3{fill:#646464;}.cls-4{fill:none;}</style><linearGradient id="Безымянный_градиент_4" x1="-1675.11" y1="561.88" x2="-1616.73" y2="612.12" gradientTransform="translate(6005.98 -1437.04) scale(2.96 2.99)" gradientUnits="userSpaceOnUse"><stop offset="0" stop-color="#5a9fd4"/><stop offset="1" stop-color="#306998"/></linearGradient><linearGradient id="Безымянный_градиент_2" x1="-1594.17" y1="642.52" x2="-1615.02" y2="613.02" gradientTransform="translate(6005.98 -1437.04) scale(2.96 2.99)" gradientUnits="userSpaceOnUse"><stop offset="0" stop-color="#ffd43b"/><stop offset="1" stop-color="#ffe873"/></linearGradient></defs><path class="cls-1" d="M1207.12,234.28a215,215,0,0,0-36.13,3.09c-32,5.65-37.8,17.48-37.8,39.3v28.82h75.61v9.61h-104c-22,0-41.22,13.21-47.23,38.33-6.95,28.8-7.26,46.77,0,76.85,5.37,22.38,18.21,38.33,40.18,38.33h26V434.07c0-25,21.59-47,47.23-47h75.53c21,0,37.8-17.31,37.8-38.43v-72c0-20.49-17.28-35.88-37.8-39.31a236.22,236.22,0,0,0-39.4-3.08Zm-40.89,23.18a14.41,14.41,0,1,1-14.18,14.45,14.35,14.35,0,0,1,14.18-14.45Z" transform="translate(-2.45 -36)"/><path class="cls-2" d="M1293.75,315.09v33.58c0,26-22.07,47.94-47.23,47.94H1171c-20.68,0-37.8,17.7-37.8,38.42v72c0,20.49,17.82,32.55,37.8,38.42,23.94,7,46.89,8.31,75.53,0,19-5.51,37.8-16.6,37.8-38.42V478.21H1208.8v-9.6h113.33c22,0,30.16-15.33,37.8-38.34,7.9-23.68,7.56-46.46,0-76.84-5.43-21.88-15.8-38.34-37.8-38.34Zm-42.48,182.33a14.41,14.41,0,1,1-14.18,14.37A14.28,14.28,0,0,1,1251.27,497.42Z" transform="translate(-2.45 -36)"/><path class="cls-3" d="M181.9,667.89C77.68,678.86,2.45,604.42,2.45,604.42V170.3H156.82c61.12,0,122.24,36.83,120.68,111.27-.79,37.61-15.68,63.47-49.37,83.85,57.2,22.72,103.43,62.69,104.22,147.31C333.92,596.58,262.61,660.05,181.9,667.89ZM149.77,209.48H59.66l-.79,148.89L160,357.58c41.53,0,59.55-44.66,59.55-78.36C219.51,243.18,188.17,211.83,149.77,209.48ZM266.53,515.87c0-50.94-31.35-124.59-114.41-120.68H59.66l-.79,196.69c17.24,15.67,65.82,43.88,110.49,37.61,60.34-8.62,97.95-58,97.95-114.41Z" transform="translate(-2.45 -36)"/><path class="cls-3" d="M470.26,664h-57.2V169.52s93.24,0,155.93-.79c79.15.79,139.48,58.77,140.27,133.22,0,75.22-56.42,130.86-131.65,130.86H470.26Zm91.68-453.71H470.26V393.63h90.11c54.07,0,90.9-38.4,90.9-93.25C651.27,254.15,611.31,210.26,561.94,210.26Z" transform="translate(-2.45 -36)"/><path class="cls-3" d="M1031.3,209.48H833.05V378.74H997.61l-20.37,39.18H833.05V624.79h213.14V664H776.63l-.78-493.67,275.05-.78Z" transform="translate(-2.45 -36)"/><line class="cls-4" x1="55.55" x2="47.55" y2="710"/><line class="cls-4" x1="72.55" y1="711" x2="1304.55" y2="719"/><line class="cls-4" x1="1301.55" x2="1304.55" y2="719"/></svg>