<svg id="Слой_1" data-name="Слой 1" xmlns="http://www.w3.org/2000/svg" xmlns:xlink="http://www.w3.org/1999/xlink" viewBox="0 0 1257 762"><defs><style>.cls-1{fill:url(#Безымянный_градиент_4);}.cls-2{fill:url(#Безымянный_градиент_2);}.cls-3{fill:none;}</style><linearGradient id="Безымянный_градиент_4" x1="-1915.7" y1="488.84" x2="-1775.32" y2="609.61" gradientTransform="translate(6005.98 -1437.04) scale(2.96 2.99)" gradientUnits="userSpaceOnUse"><stop offset="0" stop-color="#5a9fd4"/><stop offset="1" stop-color="#306998"/></linearGradient><linearGradient id="Безымянный_градиент_2" x1="-1721.09" y1="682.7" x2="-1771.21" y2="611.78" gradientTransform="translate(6005.98 -1437.04) scale(2.96 2.99)" gradientUnits="userSpaceOnUse"><stop offset="0" stop-color="#ffd43b"/><stop offset="1" stop-color="#ffe873"/></linearGradient></defs><path class="cls-1" d="M722.67,3a519.56,519.56,0,0,0-86.86,7.42c-76.93,13.6-90.9,42-90.9,94.5v69.29H726.7V197.3h-250c-52.83,0-99.09,31.76-113.56,92.17-16.69,69.24-17.43,112.45,0,184.76,12.92,53.82,43.78,92.16,96.61,92.16h62.51V483.34c0-60,51.91-112.93,113.57-112.93H817.38c50.55,0,90.9-41.62,90.9-92.38V104.92c0-49.27-41.57-86.28-90.9-94.5A567.32,567.32,0,0,0,722.67,3ZM624.36,58.72c18.78,0,34.11,15.59,34.11,34.75a34.11,34.11,0,1,1-68.22,0c0-19.16,15.27-34.75,34.11-34.75Z" transform="translate(-50 -3)"/><path class="cls-2" d="M931,197.29V278c0,62.58-53.06,115.26-113.57,115.26H635.81c-49.74,0-90.9,42.56-90.9,92.38v173.1c0,49.27,42.84,78.25,90.9,92.38,57.54,16.92,112.72,20,181.57,0,45.77-13.25,90.9-39.92,90.9-92.38V589.48H726.7V566.39H999.17c52.84,0,72.52-36.86,90.89-92.17,19-56.94,18.18-111.71,0-184.76-13.06-52.59-38-92.17-90.89-92.17ZM828.82,635.67a34.3,34.3,0,0,1,34.11,34.53c0,19.16-15.27,34.75-34.11,34.75s-34.11-15.59-34.11-34.75A34.35,34.35,0,0,1,828.82,635.67Z" transform="translate(-50 -3)"/><line class="cls-3" x1="8" y1="33" y2="743"/><line class="cls-3" x1="25" y1="744" x2="1257" y2="752"/><line class="cls-3" x1="1254" y1="33" x2="1257" y2="752"/></svg>